# xmcd
# 
# Track frame offsets:
#     150
#     13324
#     26102
#     38609
#     53311
#     66615
#     79617
#     92450
#     103523
#     119246
#     131217
#     146139
#     160423
#     173369
#     184614
#     197313
#     210411
#     226689
#     240421
#     255157
#     268972
#     282527
# 
# Disc length: 3951
# 
# Revision: 1
# Processed by: cddbd v1.5.2PL0 Copyright (c) Steve Scherf et al.
# Submitted via: BonkEnc v1.0.15
# 
DISCID=2c0f6d16
DTITLE=Memphis Minnie - Memphis Minnie - BD BLUES
DYEAR=2008
DGENRE=Blues
TTITLE0=Frisco town
TTITLE1=I'm going back home
TTITLE2=I never told a lie
TTITLE3=Meningitis blues
TTITLE4=New bumble bee
TTITLE5=Frankie jean (that trottin' foot
TTITLE6=What's the matter with the mill?
TTITLE7=I don't want that junka outa you
TTITLE8=Crazy cryin' blues
TTITLE9=Soo cow soo
TTITLE10=Chickasaw train blues (low down dirty thing)
TTITLE11=Moaning the blues
TTITLE12=Dirty mother for you
TTITLE13=I'm waiting on you
TTITLE14=He's in the ring
TTITLE15=Joe Louis strut
TTITLE16=When the sun goes down Part2
TTITLE17=Hoodoo lady
TTITLE18=If you see my rooster (please run him home)
TTITLE19=I'm a bad luck woman
TTITLE20=Good morning
TTITLE21=Hot stuff
EXTD=CD1
EXTT0=
EXTT1=
EXTT2=
EXTT3=
EXTT4=
EXTT5=
EXTT6=
EXTT7=
EXTT8=
EXTT9=
EXTT10=
EXTT11=
EXTT12=
EXTT13=
EXTT14=
EXTT15=
EXTT16=
EXTT17=
EXTT18=
EXTT19=
EXTT20=
EXTT21=
PLAYORDER=
